<?xml version="1.0" standalone="no"?>
<!DOCTYPE svg PUBLIC "-//W3C//DTD SVG 20010904//EN"
 "http://www.w3.org/TR/2001/REC-SVG-20010904/DTD/svg10.dtd">
<svg version="1.0" xmlns="http://www.w3.org/2000/svg"
 width="1088.000000pt" height="1088.000000pt" viewBox="0 0 1088.000000 1088.000000"
 preserveAspectRatio="xMidYMid meet">
<metadata>
Created by potrace 1.14, written by Peter Selinger 2001-2017
</metadata>
<g transform="translate(0.000000,1088.000000) scale(0.100000,-0.100000)"
fill="#000000" stroke="none">
<path d="M1319 10146 c-2 -2 -26 -6 -54 -10 -71 -8 -112 -16 -175 -33 -30 -8
-59 -15 -65 -17 -45 -10 -124 -42 -217 -86 -185 -88 -385 -253 -509 -420 -27
-36 -52 -69 -57 -75 -35 -44 -145 -266 -145 -292 0 -7 -4 -13 -8 -13 -3 0 -9
-10 -12 -22 -2 -13 -12 -50 -21 -83 -20 -70 -25 -89 -31 -130 -3 -16 -10 -55
-15 -85 -10 -61 -7 -6876 3 -6925 4 -16 11 -50 16 -75 6 -25 13 -56 15 -69 3
-13 10 -40 16 -60 12 -38 16 -51 19 -63 14 -50 139 -296 161 -318 3 -3 21 -27
40 -55 140 -202 379 -389 620 -485 30 -12 64 -26 75 -31 11 -5 29 -11 40 -14
11 -2 38 -9 60 -15 22 -6 51 -13 65 -15 14 -3 34 -7 46 -10 12 -3 39 -8 60
-12 54 -11 8315 -10 8388 1 75 11 77 11 101 19 11 3 34 9 50 12 17 3 35 7 42
9 7 1 16 5 19 9 4 4 15 7 25 7 42 0 363 157 389 190 3 3 21 17 40 30 51 36 74
57 154 136 74 73 82 82 131 149 16 22 33 42 36 45 3 3 14 21 25 40 10 19 22
37 25 40 11 9 90 168 104 210 1 3 7 19 14 35 14 32 39 114 47 155 3 14 8 34
11 45 4 11 8 29 9 40 1 11 7 49 12 85 13 77 11 6848 -1 6920 -15 83 -48 210
-74 283 -36 99 -103 237 -116 237 -6 0 -8 3 -4 6 6 7 -60 107 -122 184 -46 58
-160 171 -208 207 -21 15 -40 30 -43 34 -21 25 -264 166 -300 174 -3 1 -18 7
-35 14 -63 27 -206 66 -280 77 -22 3 -60 10 -85 15 -43 8 -8272 13 -8281 5z"/>
</g>
</svg>
