<svg height="58.5" width="67.5" style="width: 288px; height: 58.5px; position: absolute; top: 50%; left: 50%; transform: translate(-50%, -50%) scale(1); z-index: 0; cursor: pointer;"><defs id="SvgjsDefs1001"></defs><g id="SvgjsG1007" featurekey="symbolContainer" transform="matrix(0.9,0,0,0.9,0,0)" fill="#40a8c4"><rect xmlns="http://www.w3.org/2000/svg" width="75" height="65" rx="10" ry="10"></rect></g><g id="SvgjsG1008" featurekey="monogramFeature-0" transform="matrix(0.5935704982709868,0,0,0.5935704982709868,14.219212509894955,6.5070399095007865)" fill="#1F212A"><path d="M46.706 17.808 c0.2199 -1.2184 15.9 6.4914 15.239 7.1742 c-3.3031 4.8304 -6.1344 10.284 -8.6298 16.036 c-2.4971 5.7557 -4.6759 11.804 -6.7872 17.928 c-0.48176 1.3264 -5.5111 0.39727 -5.6108 -1.0703 c0.00064452 -0.018457 0.0019336 -0.036914 0.0025781 -0.055371 c-0.07371 -0.069258 -0.13916 -0.14614 -0.18364 -0.24146 c-2.0161 -5.382 -3.9933 -10.75 -6.168 -15.961 c-0.66546 -1.5889 -1.3525 -3.1645 -2.0612 -4.7191 c-0.79956 1.7033 -1.5896 3.4187 -2.3669 5.1494 l-6.729 15.235 c0.00064452 0.18369 0.0044531 0.36803 0.0044531 0.55172 c-0.019688 1.4065 -5.0878 2.0961 -5.6521 0.82626 c-1.8044 -5.9134 -3.9457 -11.684 -6.3954 -17.238 c-2.4539 -5.5473 -5.2289 -10.889 -8.349 -15.788 c-0.64194 -0.70548 15.311 -7.8306 15.466 -6.6702 c1.805 6.5454 2.9866 13.051 3.7741 19.529 c0.2161 1.8069 0.3985 3.6113 0.5536 5.4132 l0.9159 -4.02 c0.66672 -2.8467 1.3583 -5.6998 2.1229 -8.5668 c0.76902 -2.869 1.5959 -5.7456 2.6414 -8.6838 c0.10998 -0.42838 1.8292 0.1265 3.7518 0.96612 c2.0313 -0.96162 3.9297 -1.6487 4.0524 -1.2019 c2.1781 5.778 3.5617 11.523 4.7413 17.237 c0.27644 1.3589 0.53701 2.7164 0.7887 4.0721 c0.16904 -1.8616 0.36229 -3.7295 0.59361 -5.607 c0.82752 -6.6756 2.1038 -13.475 4.2857 -20.295 z"></path></g>
</svg>